# xmcd
#
# Track frame offsets: 
#        150
#        13178
#        32347
#        50435
#        67793
#        82657
#        90415
#        106027
#        126828
#        144022
#        157833
#        182538
#        207238
#        227200
#        245957
#        264186
#        283496
#
# Disc length: 4030 seconds
#
# Revision: 1
# Processed by: cddbd v1.5.2PL0 Copyright (c) Steve Scherf et al.
# Submitted via: ExactAudioCopy v0.99pb4
#
DISCID=d20fbc11
DTITLE=Tal Farlow - The Complete Verve Tal Farlow Sessions CD 02
DYEAR=2004
DGENRE=Jazz
TTITLE0=These Foolish Things
TTITLE1=I Remember You
TTITLE2=How Deep Is The Ocean
TTITLE3=Fascinating Rhythm
TTITLE4=Manhattan
TTITLE5=Autumn Leaves
TTITLE6=It's You Or No One
TTITLE7=Tenderly
TTITLE8=There Will Never Be Another You
TTITLE9=Just One Of Those Things
TTITLE10=Out Of Nowhere
TTITLE11=Walkin'
TTITLE12=Moonlight Becomes You
TTITLE13=On The Alamo
TTITLE14=Will You Still Be Mine
TTITLE15=Lorinesque
TTITLE16=Bye Bye Baby
EXTD=YEAR: 2004
EXTT0=
EXTT1=
EXTT2=
EXTT3=
EXTT4=
EXTT5=
EXTT6=
EXTT7=
EXTT8=
EXTT9=
EXTT10=
EXTT11=
EXTT12=
EXTT13=
EXTT14=
EXTT15=
EXTT16=
PLAYORDER=
